<?xml version="1.0" encoding="utf-8"?>
<!-- Svg Vector Icons : http://www.onlinewebfonts.com/icon -->
<!DOCTYPE svg PUBLIC "-//W3C//DTD SVG 1.1//EN" "http://www.w3.org/Graphics/SVG/1.1/DTD/svg11.dtd">
<svg version="1.1" xmlns="http://www.w3.org/2000/svg" xmlns:xlink="http://www.w3.org/1999/xlink" x="0px" y="0px" viewBox="0 0 256 256" enable-background="new 0 0 256 256" xml:space="preserve">
<metadata> Svg Vector Icons : http://www.onlinewebfonts.com/icon </metadata>
<g><g><path fill="#000000" d="M39.5,158.5C23.2,158.5,10,144.8,10,128s13.2-30.5,29.5-30.5C55.8,97.5,69,111.2,69,128S55.8,158.5,39.5,158.5L39.5,158.5L39.5,158.5z M128,158.5c-16.3,0-29.5-13.7-29.5-30.4s13.2-30.5,29.5-30.5c16.3,0,29.5,13.7,29.5,30.5C157.5,144.8,144.3,158.5,128,158.5L128,158.5L128,158.5z M216.5,158.5c-16.3,0-29.5-13.7-29.5-30.5s13.2-30.5,29.5-30.5c16.3,0,29.5,13.7,29.5,30.5S232.8,158.5,216.5,158.5L216.5,158.5L216.5,158.5z"/></g></g>
</svg>