<?xml version="1.0" encoding="UTF-8"?>
<svg width="488px" height="488px" viewBox="0 0 488 488" xmlns="http://www.w3.org/2000/svg" xmlns:xlink="http://www.w3.org/1999/xlink" version="1.1">
   <path id="Path" d="M481.8 453 L341.8 312.9 C369.4 279.8 386 237.5 386 191.3 386 85.9 299.5 0.2 193.1 0.2 86.7 0.2 -0 86 -0 191.4 -0 296.8 86.5 382.5 192.9 382.5 238.1 382.5 279.7 367 312.7 341.1 L453.2 481.6 C461.4 489.8 473.6 489.8 481.8 481.6 490 473.4 490 461.2 481.8 453 Z M41 191.4 C41 108.6 109.2 41.3 192.9 41.3 276.6 41.3 344.8 108.6 344.8 191.4 344.8 274.2 276.6 341.5 192.9 341.5 109.2 341.5 41 274.1 41 191.4 Z" fill="#6e685e" fill-opacity="1" stroke="none"/>
</svg>
